<svg width="24" height="17" viewBox="0 0 24 17" fill="none" xmlns="http://www.w3.org/2000/svg">
<path fill-rule="evenodd" clip-rule="evenodd" d="M12.001 16.5C6.936 16.5 2.415 12.289 -0.00900269 8.076C2.409 3.973 6.934 0 12.001 0C17.136 0 21.636 3.953 24 8.064C21.759 12.494 17.274 16.5 12.001 16.5ZM1.491 8.064C2.334 9.395 6.177 15.5 12.001 15.5C18.306 15.5 21.752 9.386 22.491 8.084C21.719 6.886 18.245 1 12 1C5.884 1 2.308 6.835 1.491 8.064ZM11.991 3.5C14.751 3.5 16.991 5.74 16.991 8.5C16.991 11.26 14.751 13.5 11.991 13.5C9.231 13.5 6.991 11.26 6.991 8.5C6.991 5.74 9.231 3.5 11.991 3.5ZM11.991 4.5C14.199 4.5 15.991 6.292 15.991 8.5C15.991 10.708 14.199 12.5 11.991 12.5C9.783 12.5 7.991 10.708 7.991 8.5C7.991 6.292 9.783 4.5 11.991 4.5Z" fill="black"/>
<path fill-rule="evenodd" clip-rule="evenodd" d="M0.999991 16L23 2.6226e-06L23.5882 0.808739L1.58816 16.8087L0.999991 16Z" fill="black"/>
</svg>
